<svg width="502" height="80" viewBox="0 0 502 80" fill="none" xmlns="http://www.w3.org/2000/svg">
<g clip-path="url(#clip0_451_2053)">
<path d="M111.489 5.26419L104.58 18.9982C104.152 19.8337 103.5 20.5341 102.698 21.0218C101.895 21.5096 100.974 21.7656 100.035 21.7616H51.6754C49.6489 21.7619 47.6626 22.3271 45.9395 23.3937C44.2164 24.4602 42.8247 25.986 41.9206 27.7996L28.1037 55.3091C27.675 56.1445 27.0234 56.845 26.2211 57.3327C25.4187 57.8205 24.4969 58.0765 23.558 58.0725H3.64776C3.02815 58.0709 2.41914 57.9116 1.87818 57.6095C1.33722 57.3073 0.882134 56.8724 0.555856 56.3457C0.229579 55.8189 0.042861 55.2177 0.0133075 54.5988C-0.016246 53.9799 0.112338 53.3637 0.38694 52.8082L23.8757 5.91359C24.783 4.10355 26.1758 2.58153 27.8985 1.51767C29.6212 0.453811 31.6058 -0.109935 33.6305 -0.110567H108.242C108.877 -0.12063 109.504 0.0360591 110.06 0.343897C110.616 0.651735 111.081 1.09996 111.41 1.64383C111.738 2.1877 111.919 2.80821 111.932 3.44347C111.946 4.07873 111.793 4.7065 111.489 5.26419Z" fill="black"/>
<path d="M111.489 41.6304L104.58 55.3644C104.152 56.1999 103.5 56.9003 102.698 57.388C101.895 57.8758 100.974 58.1318 100.035 58.1278H80.0968C78.2993 58.1294 76.5378 58.6319 75.01 59.5788C73.4822 60.5258 72.2485 61.8797 71.4474 63.4888L64.6218 77.1399C64.1921 77.9774 63.5383 78.6793 62.7333 79.1672C61.9282 79.6551 61.0035 79.9099 60.0622 79.9033H40.0138C39.3942 79.9017 38.7853 79.7424 38.2443 79.4403C37.7034 79.1381 37.2483 78.7032 36.922 78.1764C36.5957 77.6497 36.4089 77.0485 36.3794 76.4296C36.3498 75.8107 36.4785 75.1945 36.7531 74.639L52.9327 42.2936C53.8387 40.4826 55.2312 38.9597 56.9542 37.8956C58.6771 36.8316 60.6624 36.2685 62.6875 36.2694H108.283C108.913 36.268 109.533 36.4303 110.081 36.7404C110.629 37.0505 111.087 37.4978 111.411 38.0384C111.734 38.579 111.911 39.1943 111.925 39.824C111.938 40.4538 111.788 41.0762 111.489 41.6304Z" fill="black"/>
<path d="M185.782 14.6183C185.167 15.1551 184.69 15.832 184.392 16.592C184.094 17.352 183.983 18.1726 184.069 18.9844V22.038H195.385V33.8791H184.083V78.6874H165.085V33.81H156.435V22.038H165.085V16.7047C165.085 10.312 166.968 5.94125 170.736 3.59238C174.503 1.2435 180.03 0.0690763 187.316 0.0690763C190.564 0.0555571 193.805 0.375019 196.988 1.02245V13.7478C195.053 13.4191 193.091 13.2757 191.129 13.3195C189.255 13.1756 187.382 13.6304 185.782 14.6183Z" fill="black"/>
<path d="M225.036 1.38165V15.1986H206.038V1.38165H225.036ZM224.926 21.9689V78.6183H206.038V22.038L224.926 21.9689Z" fill="black"/>
<path d="M257.244 29.6512C259.269 26.749 261.992 24.4037 265.163 22.8317C268.334 21.2596 271.849 20.5115 275.385 20.6563C281.419 20.6563 286.236 22.4157 289.838 25.9344C293.416 29.4577 295.226 34.6943 295.226 41.6719V78.6874H276.228V45.9689C276.228 42.2844 275.5 39.6362 274.045 38.0242C273.204 37.1845 272.193 36.5353 271.08 36.1205C269.967 35.7057 268.777 35.535 267.592 35.62C266.245 35.5978 264.908 35.8679 263.675 36.4117C262.442 36.9556 261.341 37.7602 260.449 38.7703C258.533 40.8705 257.571 43.9839 257.561 48.1105V78.6874H238.577V22.038H256.815V29.7202L257.244 29.6512Z" fill="black"/>
<path d="M394.266 25.8653C397.702 29.3932 399.424 34.639 399.433 41.6028V78.6874H380.449V45.9689C380.449 42.3489 379.772 39.719 378.418 38.0794C377.678 37.2398 376.755 36.5814 375.72 36.155C374.685 35.7286 373.566 35.5456 372.449 35.62C371.187 35.6111 369.941 35.8903 368.803 36.4362C367.666 36.9821 366.668 37.7804 365.886 38.7703C364.145 40.8704 363.275 43.9839 363.275 48.1105V78.6874H344.401V45.9689C344.401 42.3489 343.724 39.719 342.37 38.0794C341.629 37.2406 340.705 36.5828 339.671 36.1565C338.636 35.7301 337.517 35.5466 336.401 35.62C335.138 35.6049 333.889 35.8813 332.751 36.4276C331.612 36.974 330.616 37.7757 329.838 38.7703C328.097 40.8704 327.226 43.9839 327.226 48.1105V78.6874H308.228V22.038H326.48V29.7202H326.895C329.93 25.4725 334.394 22.4611 339.47 21.2379C344.545 20.0147 349.891 20.6618 354.528 23.0604C357.442 24.6814 359.746 27.2089 361.091 30.2591C363.49 27.5278 366.285 25.1712 369.382 23.2677C372.763 21.4163 376.583 20.514 380.435 20.6563C382.975 20.5249 385.515 20.9199 387.895 21.8162C390.275 22.7126 392.444 24.0911 394.266 25.8653Z" fill="black"/>
<path d="M431.005 1.38165V15.1986H412.021V1.38165H431.005ZM430.909 21.9689V78.6183H412.021V22.038L430.909 21.9689Z" fill="black"/>
<path d="M481.893 28.7945H482.321V1.38165H501.195V78.6874H483.067V71.1157H482.639C479.295 77.0846 473.534 80.0691 465.354 80.0691C460.97 80.1335 456.665 78.8927 452.988 76.5043C449.216 73.9541 446.253 70.3773 444.449 66.1969C440.323 56.0774 440.323 44.7446 444.449 34.6252C446.251 30.4646 449.168 26.8831 452.877 24.2763C456.39 21.8723 460.559 20.6083 464.815 20.6563C472.58 20.6563 478.273 23.369 481.893 28.7945ZM480.18 62.19C482.169 59.6338 483.178 55.6822 483.178 50.3488C483.178 45.0155 482.169 41.0639 480.18 38.5078C479.206 37.2509 477.945 36.246 476.502 35.5776C475.06 34.9092 473.478 34.5968 471.889 34.6667C470.3 34.5851 468.714 34.8922 467.269 35.5615C465.825 36.2308 464.565 37.2421 463.599 38.5078C461.637 41.0639 460.67 45.0155 460.67 50.3488C460.67 55.6822 461.637 59.6338 463.599 62.19C464.565 63.4557 465.825 64.4669 467.269 65.1362C468.714 65.8055 470.3 66.1126 471.889 66.0311C473.478 66.1009 475.06 65.7885 476.502 65.1201C477.945 64.4517 479.206 63.4469 480.18 62.19Z" fill="black"/>
</g>
<defs>
<clipPath id="clip0_451_2053">
<rect width="501.195" height="80" fill="white"/>
</clipPath>
</defs>
</svg>
